<?xml version="1.0" encoding="UTF-8" standalone="no"?><svg xmlns="http://www.w3.org/2000/svg" xmlns:xlink="http://www.w3.org/1999/xlink" contentScriptType="application/ecmascript" contentStyleType="text/css" height="230px" preserveAspectRatio="none" style="width:234px;height:230px;" version="1.1" viewBox="0 0 234 230" width="234px" zoomAndPan="magnify"><defs><filter height="300%" id="fz1zxr8ngen4a" width="300%" x="-1" y="-1"><feGaussianBlur result="blurOut" stdDeviation="2.0"/><feColorMatrix in="blurOut" result="blurOut2" type="matrix" values="0 0 0 0 0 0 0 0 0 0 0 0 0 0 0 0 0 0 .4 0"/><feOffset dx="4.0" dy="4.0" in="blurOut2" result="blurOut3"/><feBlend in="SourceGraphic" in2="blurOut3" mode="normal"/></filter></defs><g><!--MD5=[454ed48f055567edc734f170f61b4daf]
class Dog--><rect fill="#FEFECE" filter="url(#fz1zxr8ngen4a)" height="60.8047" id="Dog" style="stroke: #A80036; stroke-width: 1.5;" width="59" x="6" y="20.5"/><ellipse cx="21.9" cy="36.5" fill="#ADD1B2" rx="11" ry="11" style="stroke: #A80036; stroke-width: 1.0;"/><path d="M24.8688,42.1406 Q24.2906,42.4375 23.65,42.5781 Q23.0094,42.7344 22.3063,42.7344 Q19.8063,42.7344 18.4781,41.0938 Q17.1656,39.4375 17.1656,36.3125 Q17.1656,33.1875 18.4781,31.5313 Q19.8063,29.875 22.3063,29.875 Q23.0094,29.875 23.65,30.0313 Q24.3063,30.1875 24.8688,30.4844 L24.8688,33.2031 Q24.2438,32.625 23.65,32.3594 Q23.0563,32.0781 22.4313,32.0781 Q21.0875,32.0781 20.4,33.1563 Q19.7125,34.2188 19.7125,36.3125 Q19.7125,38.4063 20.4,39.4844 Q21.0875,40.5469 22.4313,40.5469 Q23.0563,40.5469 23.65,40.2813 Q24.2438,40 24.8688,39.4219 L24.8688,42.1406 Z "/><text fill="#000000" font-family="sans-serif" font-size="12" lengthAdjust="spacingAndGlyphs" textLength="25" x="36.1" y="40.6543">Dog</text><line style="stroke: #A80036; stroke-width: 1.5;" x1="7" x2="64" y1="52.5" y2="52.5"/><line style="stroke: #A80036; stroke-width: 1.5;" x1="7" x2="64" y1="60.5" y2="60.5"/><ellipse cx="17" cy="71.5" fill="#84BE84" rx="3" ry="3" style="stroke: #038048; stroke-width: 1.0;"/><text fill="#000000" font-family="sans-serif" font-size="11" lengthAdjust="spacingAndGlyphs" textLength="33" x="26" y="74.7104">bark()</text><!--MD5=[8d10b9619f233caeee54837354dd5717]
class Cat--><rect fill="#FEFECE" filter="url(#fz1zxr8ngen4a)" height="48" id="Cat" style="stroke: #A80036; stroke-width: 1.5;" width="53" x="9" y="171"/><ellipse cx="24" cy="187" fill="#ADD1B2" rx="11" ry="11" style="stroke: #A80036; stroke-width: 1.0;"/><path d="M26.9688,192.6406 Q26.3906,192.9375 25.75,193.0781 Q25.1094,193.2344 24.4063,193.2344 Q21.9063,193.2344 20.5781,191.5938 Q19.2656,189.9375 19.2656,186.8125 Q19.2656,183.6875 20.5781,182.0313 Q21.9063,180.375 24.4063,180.375 Q25.1094,180.375 25.75,180.5313 Q26.4063,180.6875 26.9688,180.9844 L26.9688,183.7031 Q26.3438,183.125 25.75,182.8594 Q25.1563,182.5781 24.5313,182.5781 Q23.1875,182.5781 22.5,183.6563 Q21.8125,184.7188 21.8125,186.8125 Q21.8125,188.9063 22.5,189.9844 Q23.1875,191.0469 24.5313,191.0469 Q25.1563,191.0469 25.75,190.7813 Q26.3438,190.5 26.9688,189.9219 L26.9688,192.6406 Z "/><text fill="#000000" font-family="sans-serif" font-size="12" lengthAdjust="spacingAndGlyphs" textLength="21" x="38" y="191.1543">Cat</text><line style="stroke: #A80036; stroke-width: 1.5;" x1="10" x2="61" y1="203" y2="203"/><line style="stroke: #A80036; stroke-width: 1.5;" x1="10" x2="61" y1="211" y2="211"/><path d="M100.5,8 L100.5,47 L65.03,51 L100.5,55 L100.5,93.6641 A0,0 0 0 0 100.5,93.6641 L222.5,93.6641 A0,0 0 0 0 222.5,93.6641 L222.5,18 L212.5,8 L100.5,8 A0,0 0 0 0 100.5,8 " fill="#FBFB77" filter="url(#fz1zxr8ngen4a)" style="stroke: #A80036; stroke-width: 1.0;"/><path d="M212.5,8 L212.5,18 L222.5,18 L212.5,8 " fill="#FBFB77" style="stroke: #A80036; stroke-width: 1.0;"/><text fill="#000000" font-family="sans-serif" font-size="13" lengthAdjust="spacingAndGlyphs" textLength="101" x="106.5" y="25.0669">Responsibilities:</text><text fill="#000000" font-family="sans-serif" font-size="13" lengthAdjust="spacingAndGlyphs" textLength="72" x="106.5" y="40.1997">- Very fluffy</text><text fill="#000000" font-family="sans-serif" font-size="13" lengthAdjust="spacingAndGlyphs" textLength="0" x="110.5" y="55.3325"/><text fill="#000000" font-family="sans-serif" font-size="13" lengthAdjust="spacingAndGlyphs" textLength="89" x="106.5" y="70.4653">Collaborators:</text><text fill="#000000" font-family="sans-serif" font-size="13" lengthAdjust="spacingAndGlyphs" textLength="31" x="106.5" y="85.5981">- Cat</text><!--MD5=[03a9ed13663c4ffb39830f7d1981f665]
link Dog to Cat--><path d="M35.5,81.77 C35.5,106.52 35.5,141.5 35.5,165.81 " fill="none" id="Dog-&gt;Cat" style="stroke: #A80036; stroke-width: 1.0;"/><polygon fill="#A80036" points="35.5,170.82,39.5,161.82,35.5,165.82,31.5,161.82,35.5,170.82" style="stroke: #A80036; stroke-width: 1.0;"/><text fill="#000000" font-family="sans-serif" font-size="13" lengthAdjust="spacingAndGlyphs" textLength="56" x="36.5" y="137.0669">fluffiness</text><!--MD5=[f937c42481e08057a8596d566c465b75]
@startuml inline_umlgraph_2.svg
class Dog {
  + bark()
}

Dog - -> Cat : fluffiness

note right of Dog
Responsibilities:
- Very fluffy

Collaborators:
- Cat
end note
@enduml

PlantUML version 1.2020.02(Sun Mar 01 10:22:07 UTC 2020)
(GPL source distribution)
Java Runtime: OpenJDK Runtime Environment
JVM: OpenJDK 64-Bit Server VM
Java Version: 11.0.27+6
Operating System: Linux
Default Encoding: UTF-8
Language: en
Country: null
--></g></svg>